<svg xmlns="http://www.w3.org/2000/svg" width="32" height="32" viewBox="0 0 32 32" fill="none">
  <!-- Circular Icon with Curved Bands -->
  <g transform="translate(16, 16)">
    <!-- Orange bands forming left and right boundaries -->
    <path d="M 0 -10 A 10 10 0 0 1 10 0 A 10 10 0 0 1 0 10 A 10 10 0 0 1 -10 0 A 10 10 0 0 1 0 -10" 
          fill="none" 
          stroke="#F27D16" 
          stroke-width="1.5" 
          stroke-linecap="round"/>
    
    <!-- Black bands in the center -->
    <path d="M -7.5 -5 A 7.5 7.5 0 0 1 7.5 -5" 
          fill="none" 
          stroke="#282828" 
          stroke-width="1.2" 
          stroke-linecap="round"/>
    <path d="M -6 0 A 6 6 0 0 1 6 0" 
          fill="none" 
          stroke="#282828" 
          stroke-width="1.2" 
          stroke-linecap="round"/>
    <path d="M -5 5 A 5 5 0 0 1 5 5" 
          fill="none" 
          stroke="#282828" 
          stroke-width="1.2" 
          stroke-linecap="round"/>
  </g>
</svg>
