<svg xmlns="http://www.w3.org/2000/svg" width="200" height="60" viewBox="0 0 200 60" fill="none">
  <!-- Circular Icon with Curved Bands -->
  <g transform="translate(30, 30)">
    <!-- Orange bands forming left and right boundaries -->
    <path d="M 0 -20 A 20 20 0 0 1 20 0 A 20 20 0 0 1 0 20 A 20 20 0 0 1 -20 0 A 20 20 0 0 1 0 -20" 
          fill="none" 
          stroke="#F27D16" 
          stroke-width="3" 
          stroke-linecap="round"/>
    
    <!-- Black bands in the center -->
    <path d="M -15 -10 A 15 15 0 0 1 15 -10" 
          fill="none" 
          stroke="#282828" 
          stroke-width="2.5" 
          stroke-linecap="round"/>
    <path d="M -12 0 A 12 12 0 0 1 12 0" 
          fill="none" 
          stroke="#282828" 
          stroke-width="2.5" 
          stroke-linecap="round"/>
    <path d="M -10 10 A 10 10 0 0 1 10 10" 
          fill="none" 
          stroke="#282828" 
          stroke-width="2.5" 
          stroke-linecap="round"/>
  </g>
  
  <!-- Company Name Text -->
  <text x="80" y="38" 
        font-family="Arial, Helvetica, sans-serif" 
        font-weight="bold" 
        font-size="24" 
        fill="#282828" 
        letter-spacing="0.5">
    sewa<tspan font-weight="bold" fill="#282828">G</tspan>o
  </text>
</svg>


