<svg width="600" height="400" viewBox="0 0 600 400" fill="none" xmlns="http://www.w3.org/2000/svg">
  <!-- Background -->
  <rect width="600" height="400" fill="#F8FAFC"/>
  
  <!-- Isometric grid pattern -->
  <defs>
    <pattern id="grid" width="40" height="40" patternUnits="userSpaceOnUse">
      <path d="M 40 0 L 0 0 0 40" fill="none" stroke="#E2E8F0" stroke-width="1" opacity="0.3"/>
    </pattern>
  </defs>
  <rect width="600" height="400" fill="url(#grid)"/>
  
  <!-- Buildings -->
  <g opacity="0.7">
    <!-- Building 1 -->
    <path d="M 100 300 L 100 200 L 150 180 L 150 280 Z" fill="#94A3B8"/>
    <path d="M 100 200 L 150 180 L 150 200 L 100 220 Z" fill="#64748B"/>
    
    <!-- Building 2 -->
    <path d="M 200 320 L 200 220 L 250 200 L 250 300 Z" fill="#94A3B8"/>
    <path d="M 200 220 L 250 200 L 250 220 L 200 240 Z" fill="#64748B"/>
    
    <!-- Building 3 -->
    <path d="M 300 280 L 300 180 L 350 160 L 350 260 Z" fill="#94A3B8"/>
    <path d="M 300 180 L 350 160 L 350 180 L 300 200 Z" fill="#64748B"/>
    
    <!-- Building 4 -->
    <path d="M 400 300 L 400 200 L 450 180 L 450 280 Z" fill="#94A3B8"/>
    <path d="M 400 200 L 450 180 L 450 200 L 400 220 Z" fill="#64748B"/>
  </g>
  
  <!-- Roads -->
  <path d="M 50 350 L 550 350" stroke="#CBD5E1" stroke-width="8" stroke-linecap="round"/>
  <path d="M 50 350 L 550 350" stroke="#E2E8F0" stroke-width="4" stroke-linecap="round" stroke-dasharray="20,10"/>
  
  <!-- Cross roads -->
  <path d="M 300 200 L 300 350" stroke="#CBD5E1" stroke-width="6" stroke-linecap="round"/>
  <path d="M 300 200 L 300 350" stroke="#E2E8F0" stroke-width="3" stroke-linecap="round" stroke-dasharray="15,8"/>
  
  <!-- Trees and greenery -->
  <g opacity="0.6">
    <circle cx="80" cy="320" r="15" fill="#86EFAC"/>
    <circle cx="120" cy="330" r="12" fill="#86EFAC"/>
    <circle cx="180" cy="340" r="18" fill="#86EFAC"/>
    <circle cx="220" cy="325" r="14" fill="#86EFAC"/>
    <circle cx="280" cy="335" r="16" fill="#86EFAC"/>
    <circle cx="320" cy="320" r="13" fill="#86EFAC"/>
    <circle cx="380" cy="330" r="17" fill="#86EFAC"/>
    <circle cx="420" cy="325" r="15" fill="#86EFAC"/>
    <circle cx="480" cy="335" r="14" fill="#86EFAC"/>
  </g>
  
  <!-- Subtle shadows -->
  <defs>
    <filter id="shadow" x="-20%" y="-20%" width="140%" height="140%">
      <feDropShadow dx="2" dy="2" stdDeviation="3" flood-color="#000000" flood-opacity="0.1"/>
    </filter>
  </defs>
  <g filter="url(#shadow)">
    <rect x="100" y="280" width="50" height="20" fill="#475569" opacity="0.3"/>
    <rect x="200" y="300" width="50" height="20" fill="#475569" opacity="0.3"/>
    <rect x="300" y="260" width="50" height="20" fill="#475569" opacity="0.3"/>
    <rect x="400" y="280" width="50" height="20" fill="#475569" opacity="0.3"/>
  </g>
</svg>
